<?xml version="1.0" standalone="no"?><svg xmlns="http://www.w3.org/2000/svg" viewBox="0 0 1440 320"><path fill="#5000ca" fill-opacity="1" d="M0,160L21.8,160C43.6,160,87,160,131,149.3C174.5,139,218,117,262,122.7C305.5,128,349,160,393,176C436.4,192,480,192,524,197.3C567.3,203,611,213,655,197.3C698.2,181,742,139,785,122.7C829.1,107,873,117,916,149.3C960,181,1004,235,1047,250.7C1090.9,267,1135,245,1178,213.3C1221.8,181,1265,139,1309,144C1352.7,149,1396,203,1418,229.3L1440,256L1440,320L1418.2,320C1396.4,320,1353,320,1309,320C1265.5,320,1222,320,1178,320C1134.5,320,1091,320,1047,320C1003.6,320,960,320,916,320C872.7,320,829,320,785,320C741.8,320,698,320,655,320C610.9,320,567,320,524,320C480,320,436,320,393,320C349.1,320,305,320,262,320C218.2,320,175,320,131,320C87.3,320,44,320,22,320L0,320Z"></path></svg>