<svg id="visual" viewBox="0 0 1900 1024" width="1900" height="1024" xmlns="http://www.w3.org/2000/svg" xmlns:xlink="http://www.w3.org/1999/xlink" version="1.1"><rect x="0" y="0" width="1900" height="1024" fill="#202020"></rect><path d="M0 475L28.8 500C57.7 525 115.3 575 172.8 566.7C230.3 558.3 287.7 491.7 345.2 510.8C402.7 530 460.3 635 518 676.3C575.7 717.7 633.3 695.3 691 666C748.7 636.7 806.3 600.3 863.8 623.5C921.3 646.7 978.7 729.3 1036.2 733C1093.7 736.7 1151.3 661.3 1209 640.8C1266.7 620.3 1324.3 654.7 1382 657.8C1439.7 661 1497.3 633 1554.8 607.8C1612.3 582.7 1669.7 560.3 1727.2 553.3C1784.7 546.3 1842.3 554.7 1871.2 558.8L1900 563L1900 1025L1871.2 1025C1842.3 1025 1784.7 1025 1727.2 1025C1669.7 1025 1612.3 1025 1554.8 1025C1497.3 1025 1439.7 1025 1382 1025C1324.3 1025 1266.7 1025 1209 1025C1151.3 1025 1093.7 1025 1036.2 1025C978.7 1025 921.3 1025 863.8 1025C806.3 1025 748.7 1025 691 1025C633.3 1025 575.7 1025 518 1025C460.3 1025 402.7 1025 345.2 1025C287.7 1025 230.3 1025 172.8 1025C115.3 1025 57.7 1025 28.8 1025L0 1025Z" fill="#420999" stroke-linecap="round" stroke-linejoin="miter"></path></svg>